<svg xmlns="http://www.w3.org/2000/svg" width="375" viewBox="0 0 375 120" height="120" version="1.0"><defs><clipPath id="a"><path d="M 7.136719 2.605469 L 94.886719 2.605469 L 94.886719 117.355469 L 7.136719 117.355469 Z M 7.136719 2.605469"/></clipPath><clipPath id="b"><path d="M 0 2.605469 L 87.75 2.605469 L 87.75 117.355469 L 0 117.355469 Z M 0 2.605469"/></clipPath><clipPath id="c"><path d="M 105.898438 87 L 373.648438 87 L 373.648438 112.386719 L 105.898438 112.386719 Z M 105.898438 87"/></clipPath><clipPath id="d"><path d="M 105.898438 84.210938 L 373.648438 84.210938 L 373.648438 109.710938 L 105.898438 109.710938 Z M 105.898438 84.210938"/></clipPath></defs><g clip-path="url(#a)"><path fill="#57697D" d="M 83.84375 40.855469 L 78.371094 40.855469 L 78.371094 29.925781 C 78.371094 14.84375 66.113281 2.605469 51.011719 2.605469 C 35.910156 2.605469 23.652344 14.84375 23.652344 29.925781 L 23.652344 40.855469 L 18.179688 40.855469 C 12.136719 40.855469 7.238281 45.746094 7.238281 51.785156 L 7.238281 106.425781 C 7.238281 112.464844 12.136719 117.355469 18.179688 117.355469 L 83.84375 117.355469 C 89.890625 117.355469 94.785156 112.464844 94.785156 106.425781 L 94.785156 51.785156 C 94.785156 45.746094 89.890625 40.855469 83.84375 40.855469 Z M 51.011719 90.035156 C 44.964844 90.035156 40.070312 85.144531 40.070312 79.105469 C 40.070312 73.066406 44.964844 68.175781 51.011719 68.175781 C 57.058594 68.175781 61.957031 73.066406 61.957031 79.105469 C 61.957031 85.144531 57.058594 90.035156 51.011719 90.035156 Z M 67.976562 40.855469 L 34.050781 40.855469 L 34.050781 29.925781 C 34.050781 20.582031 41.65625 12.988281 51.011719 12.988281 C 60.367188 12.988281 67.976562 20.582031 67.976562 29.925781 Z M 67.976562 40.855469"/></g><g clip-path="url(#b)"><path fill="#FFF" d="M 76.707031 40.855469 L 71.234375 40.855469 L 71.234375 29.925781 C 71.234375 14.84375 58.976562 2.605469 43.875 2.605469 C 28.773438 2.605469 16.515625 14.84375 16.515625 29.925781 L 16.515625 40.855469 L 11.042969 40.855469 C 4.996094 40.855469 0.101562 45.746094 0.101562 51.785156 L 0.101562 106.425781 C 0.101562 112.464844 4.996094 117.355469 11.042969 117.355469 L 76.707031 117.355469 C 82.753906 117.355469 87.648438 112.464844 87.648438 106.425781 L 87.648438 51.785156 C 87.648438 45.746094 82.753906 40.855469 76.707031 40.855469 Z M 43.875 90.035156 C 37.828125 90.035156 32.929688 85.144531 32.929688 79.105469 C 32.929688 73.066406 37.828125 68.175781 43.875 68.175781 C 49.921875 68.175781 54.820312 73.066406 54.820312 79.105469 C 54.820312 85.144531 49.921875 90.035156 43.875 90.035156 Z M 60.835938 40.855469 L 26.914062 40.855469 L 26.914062 29.925781 C 26.914062 20.582031 34.519531 12.988281 43.875 12.988281 C 53.230469 12.988281 60.835938 20.582031 60.835938 29.925781 Z M 60.835938 40.855469"/></g><g fill="#57697D"><g><g><path d="M 9.339844 -48.246094 L 4.886719 -48.246094 L 4.886719 0 L 9.339844 0 Z M 9.339844 -48.246094" transform="translate(119.955 77.843)"/></g></g></g><g fill="#57697D"><g><g><path d="M 30.492188 -48.246094 L 30.492188 -26.597656 L 9.03125 -26.597656 L 9.03125 -48.246094 L 4.578125 -48.246094 L 4.578125 0 L 9.03125 0 L 9.03125 -22.636719 L 30.492188 -22.636719 L 30.492188 0 L 34.945312 0 L 34.945312 -48.246094 Z M 30.492188 -48.246094" transform="translate(146.55 77.843)"/></g></g></g><g fill="#57697D"><g><g><path d="M 24.492188 0 L 28.082031 0 L 27.710938 -9.277344 L 27.710938 -21.277344 C 27.710938 -28.511719 24.925781 -33.460938 15.835938 -33.460938 C 6.183594 -33.460938 4.019531 -27.460938 4.019531 -22.515625 L 4.019531 -21.957031 L 8.164062 -21.957031 C 8.164062 -26.226562 9.585938 -29.8125 15.773438 -29.8125 C 21.585938 -29.8125 23.378906 -26.90625 23.378906 -21.277344 L 23.378906 -20.410156 L 13.484375 -18.863281 C 8.164062 -18.0625 2.785156 -16.019531 2.785156 -8.90625 L 2.785156 -8.289062 C 2.785156 -3.03125 6.246094 0.679688 12.246094 0.679688 C 17.9375 0.679688 21.648438 -1.730469 23.8125 -4.578125 Z M 13.359375 -3.09375 C 8.96875 -3.09375 7.113281 -5.753906 7.113281 -8.660156 L 7.113281 -9.214844 C 7.113281 -12.925781 9.648438 -14.96875 13.855469 -15.710938 L 23.378906 -17.257812 L 23.378906 -8.289062 C 22.203125 -6.371094 19.421875 -3.09375 13.359375 -3.09375 Z M 13.359375 -3.09375" transform="translate(186.073 77.843)"/></g></g></g><g fill="#57697D"><g><g><path d="M 12.988281 0 L 18.679688 0 L 30.183594 -32.78125 L 25.542969 -32.78125 L 15.835938 -4.082031 L 6.183594 -32.78125 L 1.546875 -32.78125 Z M 12.988281 0" transform="translate(217.74 77.843)"/></g></g></g><g fill="#57697D"><g><g><path d="M 30.617188 -14.597656 L 30.617188 -17.070312 C 30.617188 -26.164062 26.472656 -33.460938 16.886719 -33.460938 C 7.296875 -33.460938 3.03125 -26.164062 3.03125 -17.070312 L 3.03125 -15.710938 C 3.03125 -6.617188 7.296875 0.679688 17.195312 0.679688 C 26.410156 0.679688 30.617188 -5.195312 30.617188 -10.265625 L 30.617188 -10.515625 L 26.472656 -10.515625 C 26.472656 -6.988281 23.75 -2.96875 17.195312 -2.96875 C 10.636719 -2.96875 7.609375 -7.421875 7.421875 -14.597656 Z M 16.824219 -29.8125 C 23.070312 -29.8125 25.976562 -25.296875 26.226562 -18.183594 L 7.421875 -18.183594 C 7.609375 -25.296875 10.636719 -29.8125 16.824219 -29.8125 Z M 16.824219 -29.8125" transform="translate(249.407 77.843)"/></g></g></g><g fill="#57697D"><g><g><path d="M 9.339844 -48.246094 L 4.886719 -48.246094 L 4.886719 0 L 9.339844 0 Z M 9.339844 -48.246094" transform="translate(295.423 77.843)"/></g></g></g><g fill="#57697D"><g><g><path d="M 11.441406 -32.78125 L 11.441406 -42.058594 L 7.113281 -42.058594 L 7.113281 -32.78125 L 1.917969 -32.78125 L 1.917969 -28.882812 L 7.113281 -28.882812 L 7.113281 -9.09375 C 7.113281 -1.980469 11.132812 0.679688 16.699219 0.679688 C 19.296875 0.679688 20.78125 0.1875 21.277344 0 L 21.277344 -3.773438 C 20.78125 -3.527344 19.113281 -3.214844 17.75 -3.214844 C 13.605469 -3.214844 11.441406 -4.453125 11.441406 -9.648438 L 11.441406 -28.882812 L 21.894531 -28.882812 L 21.894531 -32.78125 Z M 11.441406 -32.78125" transform="translate(309.649 77.843)"/></g></g></g><g fill="#57697D"><g><g><path d="M 4.019531 -48.246094 L 5.195312 -11.691406 L 8.164062 -11.691406 L 9.339844 -48.246094 Z M 9.464844 -5.566406 L 3.898438 -5.566406 L 3.898438 0 L 9.464844 0 Z M 9.464844 -5.566406" transform="translate(334.389 77.843)"/></g></g></g><g fill="#FFF"><g><g><path d="M 9.339844 -48.246094 L 4.886719 -48.246094 L 4.886719 0 L 9.339844 0 Z M 9.339844 -48.246094" transform="translate(122.631 75.166)"/></g></g></g><g fill="#FFF"><g><g><path d="M 30.492188 -48.246094 L 30.492188 -26.597656 L 9.03125 -26.597656 L 9.03125 -48.246094 L 4.578125 -48.246094 L 4.578125 0 L 9.03125 0 L 9.03125 -22.636719 L 30.492188 -22.636719 L 30.492188 0 L 34.945312 0 L 34.945312 -48.246094 Z M 30.492188 -48.246094" transform="translate(149.227 75.166)"/></g></g></g><g fill="#FFF"><g><g><path d="M 24.492188 0 L 28.082031 0 L 27.710938 -9.277344 L 27.710938 -21.277344 C 27.710938 -28.511719 24.925781 -33.460938 15.835938 -33.460938 C 6.183594 -33.460938 4.019531 -27.460938 4.019531 -22.515625 L 4.019531 -21.957031 L 8.164062 -21.957031 C 8.164062 -26.226562 9.585938 -29.8125 15.773438 -29.8125 C 21.585938 -29.8125 23.378906 -26.90625 23.378906 -21.277344 L 23.378906 -20.410156 L 13.484375 -18.863281 C 8.164062 -18.0625 2.785156 -16.019531 2.785156 -8.90625 L 2.785156 -8.289062 C 2.785156 -3.03125 6.246094 0.679688 12.246094 0.679688 C 17.9375 0.679688 21.648438 -1.730469 23.8125 -4.578125 Z M 13.359375 -3.09375 C 8.96875 -3.09375 7.113281 -5.753906 7.113281 -8.660156 L 7.113281 -9.214844 C 7.113281 -12.925781 9.648438 -14.96875 13.855469 -15.710938 L 23.378906 -17.257812 L 23.378906 -8.289062 C 22.203125 -6.371094 19.421875 -3.09375 13.359375 -3.09375 Z M 13.359375 -3.09375" transform="translate(188.749 75.166)"/></g></g></g><g fill="#FFF"><g><g><path d="M 12.988281 0 L 18.679688 0 L 30.183594 -32.78125 L 25.542969 -32.78125 L 15.835938 -4.082031 L 6.183594 -32.78125 L 1.546875 -32.78125 Z M 12.988281 0" transform="translate(220.416 75.166)"/></g></g></g><g fill="#FFF"><g><g><path d="M 30.617188 -14.597656 L 30.617188 -17.070312 C 30.617188 -26.164062 26.472656 -33.460938 16.886719 -33.460938 C 7.296875 -33.460938 3.03125 -26.164062 3.03125 -17.070312 L 3.03125 -15.710938 C 3.03125 -6.617188 7.296875 0.679688 17.195312 0.679688 C 26.410156 0.679688 30.617188 -5.195312 30.617188 -10.265625 L 30.617188 -10.515625 L 26.472656 -10.515625 C 26.472656 -6.988281 23.75 -2.96875 17.195312 -2.96875 C 10.636719 -2.96875 7.609375 -7.421875 7.421875 -14.597656 Z M 16.824219 -29.8125 C 23.070312 -29.8125 25.976562 -25.296875 26.226562 -18.183594 L 7.421875 -18.183594 C 7.609375 -25.296875 10.636719 -29.8125 16.824219 -29.8125 Z M 16.824219 -29.8125" transform="translate(252.083 75.166)"/></g></g></g><g fill="#FFF"><g><g><path d="M 9.339844 -48.246094 L 4.886719 -48.246094 L 4.886719 0 L 9.339844 0 Z M 9.339844 -48.246094" transform="translate(298.1 75.166)"/></g></g></g><g fill="#FFF"><g><g><path d="M 11.441406 -32.78125 L 11.441406 -42.058594 L 7.113281 -42.058594 L 7.113281 -32.78125 L 1.917969 -32.78125 L 1.917969 -28.882812 L 7.113281 -28.882812 L 7.113281 -9.09375 C 7.113281 -1.980469 11.132812 0.679688 16.699219 0.679688 C 19.296875 0.679688 20.78125 0.1875 21.277344 0 L 21.277344 -3.773438 C 20.78125 -3.527344 19.113281 -3.214844 17.75 -3.214844 C 13.605469 -3.214844 11.441406 -4.453125 11.441406 -9.648438 L 11.441406 -28.882812 L 21.894531 -28.882812 L 21.894531 -32.78125 Z M 11.441406 -32.78125" transform="translate(312.325 75.166)"/></g></g></g><g fill="#FFF"><g><g><path d="M 4.019531 -48.246094 L 5.195312 -11.691406 L 8.164062 -11.691406 L 9.339844 -48.246094 Z M 9.464844 -5.566406 L 3.898438 -5.566406 L 3.898438 0 L 9.464844 0 Z M 9.464844 -5.566406" transform="translate(337.065 75.166)"/></g></g></g><g clip-path="url(#c)"><path fill="#57697D" d="M 372.238281 93.214844 C 332.296875 105.871094 299.5625 112.199219 274.039062 112.199219 C 260.566406 112.199219 244.980469 110.34375 227.269531 106.632812 C 224.632812 106.15625 210.457031 102.777344 184.742188 96.496094 C 169.667969 92.785156 158.601562 90.929688 151.535156 90.929688 C 137.3125 90.929688 123.183594 96.640625 109.148438 108.058594 C 108.769531 108.347656 108.394531 108.488281 108.019531 108.488281 C 106.605469 108.488281 105.898438 107.824219 105.898438 106.492188 C 105.898438 106.015625 106.136719 105.585938 106.605469 105.207031 C 120.828125 93.121094 136.84375 87.078125 154.644531 87.078125 C 166.796875 87.078125 179.796875 88.363281 193.640625 90.929688 C 205.886719 93.308594 218.085938 95.738281 230.238281 98.210938 C 245.683594 100.78125 261.226562 102.066406 276.863281 102.066406 C 313.035156 102.066406 344.449219 97.878906 371.105469 89.503906 C 372.800781 89.027344 373.648438 89.695312 373.648438 91.503906 C 373.648438 92.359375 373.175781 92.929688 372.238281 93.214844 Z M 372.238281 93.214844"/></g><g clip-path="url(#d)"><path fill="#FFF" d="M 372.238281 90.539062 C 332.296875 103.195312 299.5625 109.523438 274.039062 109.523438 C 260.566406 109.523438 244.980469 107.667969 227.269531 103.957031 C 224.632812 103.480469 210.457031 100.101562 184.742188 93.820312 C 169.667969 90.109375 158.601562 88.253906 151.535156 88.253906 C 137.3125 88.253906 123.183594 93.964844 109.148438 105.382812 C 108.769531 105.667969 108.394531 105.8125 108.019531 105.8125 C 106.605469 105.8125 105.898438 105.148438 105.898438 103.816406 C 105.898438 103.339844 106.136719 102.910156 106.605469 102.527344 C 120.828125 90.445312 136.84375 84.402344 154.644531 84.402344 C 166.796875 84.402344 179.796875 85.6875 193.640625 88.253906 C 205.886719 90.632812 218.085938 93.0625 230.238281 95.535156 C 245.683594 98.101562 261.226562 99.390625 276.863281 99.390625 C 313.035156 99.390625 344.449219 95.203125 371.105469 86.828125 C 372.800781 86.351562 373.648438 87.019531 373.648438 88.824219 C 373.648438 89.683594 373.175781 90.253906 372.238281 90.539062 Z M 372.238281 90.539062"/></g></svg>