<svg xmlns="http://www.w3.org/2000/svg" width="144" viewBox="0 0 144 143.25" height="143.25" version="1.0"><defs><clipPath id="a"><path d="M 22.019531 0 L 131 0 L 131 141.960938 L 22.019531 141.960938 Z M 22.019531 0"/></clipPath><clipPath id="b"><path d="M 13.160156 0 L 122.164062 0 L 122.164062 141.960938 L 13.160156 141.960938 Z M 13.160156 0"/></clipPath></defs><g clip-path="url(#a)"><path fill="#57697D" d="M 117.304688 47.320312 L 110.507812 47.320312 L 110.507812 33.800781 C 110.507812 15.140625 95.28125 0 76.523438 0 C 57.761719 0 42.539062 15.140625 42.539062 33.800781 L 42.539062 47.320312 L 35.742188 47.320312 C 28.230469 47.320312 22.148438 53.371094 22.148438 60.839844 L 22.148438 128.441406 C 22.148438 135.910156 28.230469 141.960938 35.742188 141.960938 L 117.304688 141.960938 C 124.8125 141.960938 130.898438 135.910156 130.898438 128.441406 L 130.898438 60.839844 C 130.898438 53.371094 124.8125 47.320312 117.304688 47.320312 Z M 76.523438 108.160156 C 69.011719 108.160156 62.929688 102.109375 62.929688 94.640625 C 62.929688 87.171875 69.011719 81.121094 76.523438 81.121094 C 84.03125 81.121094 90.117188 87.171875 90.117188 94.640625 C 90.117188 102.109375 84.03125 108.160156 76.523438 108.160156 Z M 97.59375 47.320312 L 55.453125 47.320312 L 55.453125 33.800781 C 55.453125 22.242188 64.898438 12.84375 76.523438 12.84375 C 88.144531 12.84375 97.59375 22.242188 97.59375 33.800781 Z M 97.59375 47.320312"/></g><g clip-path="url(#b)"><path fill="#FFF" d="M 108.441406 47.320312 L 101.644531 47.320312 L 101.644531 33.800781 C 101.644531 15.140625 86.421875 0 67.660156 0 C 48.902344 0 33.675781 15.140625 33.675781 33.800781 L 33.675781 47.320312 L 26.878906 47.320312 C 19.371094 47.320312 13.285156 53.371094 13.285156 60.839844 L 13.285156 128.441406 C 13.285156 135.910156 19.371094 141.960938 26.878906 141.960938 L 108.441406 141.960938 C 115.953125 141.960938 122.035156 135.910156 122.035156 128.441406 L 122.035156 60.839844 C 122.035156 53.371094 115.953125 47.320312 108.441406 47.320312 Z M 67.660156 108.160156 C 60.152344 108.160156 54.066406 102.109375 54.066406 94.640625 C 54.066406 87.171875 60.152344 81.121094 67.660156 81.121094 C 75.171875 81.121094 81.253906 87.171875 81.253906 94.640625 C 81.253906 102.109375 75.171875 108.160156 67.660156 108.160156 Z M 88.730469 47.320312 L 46.589844 47.320312 L 46.589844 33.800781 C 46.589844 22.242188 56.039062 12.84375 67.660156 12.84375 C 79.285156 12.84375 88.730469 22.242188 88.730469 33.800781 Z M 88.730469 47.320312"/></g></svg>